<?xml version="1.0" encoding="utf-8"?>
<!-- Generator: Adobe Illustrator 23.0.0, SVG Export Plug-In . SVG Version: 6.00 Build 0)  -->
<svg version="1.1" id="Layer_1" xmlns="http://www.w3.org/2000/svg" xmlns:xlink="http://www.w3.org/1999/xlink" x="0px" y="0px"
	 viewBox="0 0 512 512" style="enable-background:new 0 0 512 512;" xml:space="preserve">
<style type="text/css">
	.st0{clip-path:url(#SVGID_2_);}
	.st1{clip-path:url(#SVGID_4_);fill:url(#SVGID_5_);}
	.st2{opacity:0.3;clip-path:url(#SVGID_7_);}
	.st3{clip-path:url(#SVGID_9_);fill:#BBBBBB;}
	.st4{clip-path:url(#SVGID_11_);fill:#CCCCCC;}
	.st5{clip-path:url(#SVGID_13_);fill:#DDDDDD;}
	.st6{clip-path:url(#SVGID_15_);fill:#EEEEEE;}
	.st7{clip-path:url(#SVGID_17_);fill:#FDFEFE;}
	.st8{clip-path:url(#SVGID_19_);fill:#EBF7FE;}
	.st9{clip-path:url(#SVGID_19_);fill:none;stroke:#020202;stroke-width:4;stroke-miterlimit:10;}
	.st10{clip-path:url(#SVGID_19_);fill:#FEF27D;}
	.st11{clip-path:url(#SVGID_19_);fill:#FEEF5C;}
	.st12{clip-path:url(#SVGID_19_);fill:none;stroke:#231F20;stroke-width:2;stroke-linecap:round;stroke-linejoin:round;}
	.st13{clip-path:url(#SVGID_19_);fill:#D8D8D8;}
	.st14{clip-path:url(#SVGID_19_);fill:#FFFFFF;}
	.st15{clip-path:url(#SVGID_19_);fill:none;stroke:#000000;stroke-width:5;stroke-linecap:round;stroke-linejoin:round;}
	.st16{clip-path:url(#SVGID_19_);fill:none;stroke:#231F20;stroke-width:4;stroke-linecap:round;stroke-linejoin:round;}
	.st17{clip-path:url(#SVGID_19_);fill:#C8E1F5;}
	.st18{clip-path:url(#SVGID_19_);fill:none;stroke:#000000;stroke-width:4;stroke-linecap:round;stroke-linejoin:round;}
	.st19{clip-path:url(#SVGID_19_);fill:#8A5E3C;}
	.st20{clip-path:url(#SVGID_19_);fill:#A87D50;}
	.st21{clip-path:url(#SVGID_19_);fill:none;stroke:#020202;stroke-miterlimit:10;}
	.st22{clip-path:url(#SVGID_19_);fill-rule:evenodd;clip-rule:evenodd;fill:#FFFFFF;}
	.st23{clip-path:url(#SVGID_19_);fill:none;stroke:#FFFFFF;stroke-width:5;stroke-linecap:round;stroke-miterlimit:10;}
	.st24{clip-path:url(#SVGID_19_);fill-rule:evenodd;clip-rule:evenodd;fill:#FAC14D;}
	.st25{clip-path:url(#SVGID_19_);fill:#010101;}
	.st26{clip-path:url(#SVGID_19_);fill-rule:evenodd;clip-rule:evenodd;fill:#FFDB81;}
	.st27{clip-path:url(#SVGID_19_);fill:none;stroke:#050606;stroke-miterlimit:10;}
	.st28{clip-path:url(#SVGID_19_);}
	.st29{clip-path:url(#SVGID_21_);}
	.st30{clip-path:url(#SVGID_23_);fill:#2A211B;}
	.st31{clip-path:url(#SVGID_25_);fill:#2A211B;}
	.st32{clip-path:url(#SVGID_27_);fill:#2A211B;}
	.st33{clip-path:url(#SVGID_29_);fill:#2A211B;}
	.st34{clip-path:url(#SVGID_31_);}
	.st35{clip-path:url(#SVGID_33_);fill:#2A211B;}
	.st36{clip-path:url(#SVGID_35_);fill:#2A211B;}
	.st37{clip-path:url(#SVGID_37_);fill:#2A211B;}
	.st38{clip-path:url(#SVGID_39_);fill:#2A211B;}
	.st39{clip-path:url(#SVGID_19_);fill:#F9F9FA;}
	.st40{clip-path:url(#SVGID_19_);fill:none;stroke:#FFFFFF;stroke-width:2;stroke-miterlimit:10;}
	.st41{clip-path:url(#SVGID_19_);fill:#FAC14D;}
	.st42{clip-path:url(#SVGID_19_);fill:none;stroke:#080808;stroke-width:0.5;stroke-miterlimit:10;}
	.st43{clip-path:url(#SVGID_19_);fill:none;stroke:#050606;stroke-width:4;stroke-miterlimit:10;}
	.st44{clip-path:url(#SVGID_19_);fill:#2A211B;}
	.st45{clip-path:url(#SVGID_19_);fill:none;stroke:#212121;stroke-miterlimit:10;}
	.st46{clip-path:url(#SVGID_19_);fill:none;stroke:#0B0B0B;stroke-miterlimit:10;}
	.st47{clip-path:url(#SVGID_19_);fill:none;stroke:#A87D50;stroke-miterlimit:10;}
	.st48{clip-path:url(#SVGID_19_);fill:#F5B165;}
	.st49{clip-path:url(#SVGID_19_);fill:none;stroke:#333333;stroke-width:2;stroke-miterlimit:10;}
	.st50{clip-path:url(#SVGID_19_);fill:none;stroke:#F5C515;stroke-width:2;stroke-miterlimit:10;}
</style>
<g>
	<defs>
		<rect id="SVGID_1_" width="512" height="512"/>
	</defs>
	<clipPath id="SVGID_2_">
		<use xlink:href="#SVGID_1_"  style="overflow:visible;"/>
	</clipPath>
	<g class="st0">
		<defs>
			<path id="SVGID_3_" d="M220.21,205.96C90.15,261.54-20.88,296.03,18.7,388.66c39.58,92.63,177.1,122.68,307.17,67.11
				c130.06-55.57,203.42-175.72,163.84-268.35c-15.34-35.9-39.74-49.53-71.43-49.54C368.19,137.88,299.88,171.92,220.21,205.96"/>
		</defs>
		<clipPath id="SVGID_4_">
			<use xlink:href="#SVGID_3_"  style="overflow:visible;"/>
		</clipPath>
		
			<linearGradient id="SVGID_5_" gradientUnits="userSpaceOnUse" x1="0" y1="511.9718" x2="1" y2="511.9718" gradientTransform="matrix(489.8621 0 0 -489.8621 10.5711 251120.1719)">
			<stop  offset="0" style="stop-color:#ADB6DC"/>
			<stop  offset="0.2279" style="stop-color:#ADB6DC"/>
			<stop  offset="1" style="stop-color:#9CD7D3"/>
		</linearGradient>
		<rect x="-20.88" y="137.88" class="st1" width="550.16" height="373.46"/>
	</g>
	<g class="st0">
		<defs>
			<path id="SVGID_6_" d="M220.71,205.96C90.65,261.54-20.38,296.03,19.2,388.66c39.58,92.63,177.1,122.68,307.17,67.11
				S529.78,280.05,490.2,187.42c-15.34-35.9-39.74-49.53-71.43-49.54C368.69,137.88,300.38,171.92,220.71,205.96"/>
		</defs>
		<clipPath id="SVGID_7_">
			<use xlink:href="#SVGID_6_"  style="overflow:visible;"/>
		</clipPath>
		<g class="st2">
			<g>
				<defs>
					<rect id="SVGID_8_" x="197.54" y="-77.12" width="476.44" height="476.44"/>
				</defs>
				<clipPath id="SVGID_9_">
					<use xlink:href="#SVGID_8_"  style="overflow:visible;"/>
				</clipPath>
				<path class="st3" d="M673.98,161.1c0,131.57-106.65,238.22-238.22,238.22c-131.57,0-238.22-106.65-238.22-238.22
					S304.2-77.12,435.76-77.12C567.33-77.12,673.98,29.54,673.98,161.1"/>
			</g>
		</g>
		<g class="st2">
			<g>
				<defs>
					<rect id="SVGID_10_" x="256" y="-18.66" width="359.52" height="359.52"/>
				</defs>
				<clipPath id="SVGID_11_">
					<use xlink:href="#SVGID_10_"  style="overflow:visible;"/>
				</clipPath>
				<path class="st4" d="M615.52,161.1c0,99.28-80.48,179.76-179.76,179.76C336.48,340.86,256,260.38,256,161.1
					c0-99.28,80.48-179.76,179.76-179.76C535.04-18.66,615.52,61.82,615.52,161.1"/>
			</g>
		</g>
		<g class="st2">
			<g>
				<defs>
					<rect id="SVGID_12_" x="305.56" y="30.9" width="260.4" height="260.4"/>
				</defs>
				<clipPath id="SVGID_13_">
					<use xlink:href="#SVGID_12_"  style="overflow:visible;"/>
				</clipPath>
				<path class="st5" d="M565.96,161.1c0,71.91-58.29,130.2-130.2,130.2s-130.2-58.29-130.2-130.2c0-71.91,58.29-130.2,130.2-130.2
					S565.96,89.19,565.96,161.1"/>
			</g>
		</g>
		<g class="st2">
			<g>
				<defs>
					<rect id="SVGID_14_" x="355.69" y="85.18" width="151.84" height="151.83"/>
				</defs>
				<clipPath id="SVGID_15_">
					<use xlink:href="#SVGID_14_"  style="overflow:visible;"/>
				</clipPath>
				<path class="st6" d="M507.52,161.1c0,41.93-33.99,75.92-75.92,75.92s-75.92-33.99-75.92-75.92s33.99-75.92,75.92-75.92
					S507.52,119.17,507.52,161.1"/>
			</g>
		</g>
		<g class="st2">
			<g>
				<defs>
					<rect id="SVGID_16_" x="408.38" y="137.88" width="46.44" height="46.44"/>
				</defs>
				<clipPath id="SVGID_17_">
					<use xlink:href="#SVGID_16_"  style="overflow:visible;"/>
				</clipPath>
				<path class="st7" d="M454.83,161.1c0,12.83-10.4,23.22-23.22,23.22c-12.83,0-23.22-10.4-23.22-23.22
					c0-12.82,10.4-23.22,23.22-23.22C444.43,137.88,454.83,148.28,454.83,161.1"/>
			</g>
		</g>
	</g>
	<g class="st0">
		<defs>
			<rect id="SVGID_18_" width="512" height="512"/>
		</defs>
		<clipPath id="SVGID_19_">
			<use xlink:href="#SVGID_18_"  style="overflow:visible;"/>
		</clipPath>
		<rect x="66.87" y="305.23" class="st8" width="352.29" height="91.07"/>
		<rect x="66.87" y="305.23" class="st9" width="352.29" height="91.07"/>
		<polygon class="st10" points="267,137.88 270.56,145.08 278.5,146.23 272.75,151.84 274.11,159.75 267,156.02 259.89,159.75 
			261.25,151.84 255.5,146.23 263.44,145.08 		"/>
		<path class="st11" d="M242.5,151.21c0-6.92,3.32-13.43,8.92-17.5c-11.84-1.69-22.81,6.55-24.5,18.39s6.55,22.81,18.39,24.5
			c5.59,0.8,11.28-0.63,15.84-3.96C250.47,171.15,242.51,162.01,242.5,151.21"/>
		<path class="st12" d="M242.5,151.21c0-6.92,3.32-13.43,8.92-17.5c-11.84-1.69-22.81,6.55-24.5,18.39s6.55,22.81,18.39,24.5
			c5.59,0.8,11.28-0.63,15.84-3.96C250.47,171.15,242.51,162.01,242.5,151.21z"/>
		<line class="st12" x1="242.36" y1="176.82" x2="242.36" y2="188.39"/>
		<polygon class="st12" points="267,137.88 270.56,145.08 278.5,146.23 272.75,151.84 274.11,159.75 267,156.02 259.89,159.75 
			261.25,151.84 255.5,146.23 263.44,145.08 		"/>
		<path class="st13" d="M270.18,300.1c-24.57-4.9-54.71-17.66-54.71-50.71c0-22.6,14.09-43.78,30.85-61
			c-1.9-1.13-3.07-1.76-3.07-1.76s-64.28,35.11-64.28,76.59s64.28,39.94,64.28,39.94"/>
		<path class="st14" d="M270.21,300.12c17.6-4.15,37.36-13.9,37.36-36.89c0-36.07-48.57-67.29-61.25-74.83
			c-16.76,17.22-30.85,38.41-30.85,61C215.47,282.44,245.6,295.21,270.21,300.12"/>
		<path class="st15" d="M243.28,303.17c0,0,64.28,1.53,64.28-39.94c0-41.47-64.28-76.59-64.28-76.59S179,221.75,179,263.23
			S243.28,303.17,243.28,303.17"/>
		<path class="st13" d="M384.8,238.63c0-11.31,7.05-21.91,15.44-30.52c-0.95-0.56-1.53-0.88-1.53-0.88s-32.17,17.57-32.17,38.32
			c0,20.76,32.17,19.99,32.17,19.99c4.53,0,9.05-0.52,13.47-1.53C399.88,261.55,384.8,255.17,384.8,238.63"/>
		<path class="st14" d="M430.88,245.55c0-18.05-24.3-33.67-30.65-37.45c-8.39,8.62-15.44,19.22-15.44,30.52
			c0,16.54,15.08,22.92,27.39,25.38C421,261.94,430.88,257.06,430.88,245.55"/>
		<path class="st16" d="M398.71,207.23c0,0-32.17,17.57-32.17,38.33c0,20.76,32.17,19.98,32.17,19.98s32.17,0.77,32.17-19.98
			C430.88,224.8,398.71,207.23,398.71,207.23z"/>
		<rect x="377.47" y="279.25" class="st17" width="42.49" height="69.28"/>
		<polygon class="st8" points="420.33,349.18 399,349.18 398.71,279.25 420.04,279.25 		"/>
		<rect x="377.47" y="279.25" class="st18" width="42.49" height="69.93"/>
		<rect x="366.85" y="265.54" class="st19" width="63.74" height="13.71"/>
		<rect x="393.41" y="265.54" class="st20" width="37.18" height="13.71"/>
		<rect x="366.85" y="265.54" class="st12" width="63.74" height="13.71"/>
		<path class="st13" d="M74.19,237.67c0-11.31,7.05-21.91,15.44-30.52c-0.95-0.56-1.53-0.88-1.53-0.88s-32.17,17.57-32.17,38.32
			c0,20.76,32.17,19.99,32.17,19.99c4.53,0,9.06-0.52,13.47-1.53C89.27,260.59,74.19,254.21,74.19,237.67"/>
		<path class="st14" d="M120.27,244.59c0-18.05-24.3-33.67-30.65-37.45c-8.39,8.62-15.44,19.22-15.44,30.52
			c0,16.54,15.08,22.92,27.39,25.38C110.39,260.97,120.27,256.1,120.27,244.59"/>
		<path class="st16" d="M88.11,206.27c0,0-32.17,17.57-32.17,38.33c0,20.76,32.17,19.98,32.17,19.98s32.17,0.77,32.17-19.98
			C120.27,223.84,88.11,206.27,88.11,206.27z"/>
		<rect x="66.87" y="285.83" class="st17" width="42.49" height="107.4"/>
		<polygon class="st8" points="109.72,394.23 88.4,394.23 88.11,285.83 109.43,285.83 		"/>
		<rect x="66.87" y="285.83" class="st18" width="42.49" height="108.4"/>
		<rect x="56.24" y="264.58" class="st19" width="63.74" height="21.25"/>
		<rect x="82.8" y="264.58" class="st20" width="37.18" height="21.25"/>
		<rect x="56.24" y="264.58" class="st12" width="63.74" height="21.25"/>
		<rect x="44.11" y="406.79" class="st19" width="405.1" height="12.56"/>
		<rect x="44.11" y="406.79" class="st21" width="405.1" height="12.56"/>
		<rect x="44.73" y="407.29" class="st20" width="403.81" height="3.53"/>
		<path class="st22" d="M459.38,190.02c-0.72,0.13-1.44,0.25-2.17,0.3c-24.8,3.22-47.93-13.6-52.58-38.16
			c-2.42-12.59,0.31-25.35,7.57-35.86c7.26-10.51,18.24-17.53,30.87-19.73c1.08-0.19,2.16-0.3,3.33-0.43
			c0.95-0.09,1.85,0.42,2.23,1.31c0.38,0.89,0.18,1.89-0.52,2.53c-8.63,7.79-12.6,20.17-10.47,32.37
			c3.28,18.8,19.88,31.73,36.96,28.75c8.18-1.43,15.32-6.3,20.03-13.63c0.28-0.49,0.82-0.81,1.32-0.9c0.65-0.11,1.27,0.07,1.72,0.51
			c0.45,0.44,0.7,1.06,0.59,1.67C495.89,169.53,479.9,186.44,459.38,190.02"/>
		<path class="st23" d="M459.38,190.02c-0.72,0.13-1.44,0.25-2.17,0.3c-24.8,3.22-47.93-13.6-52.58-38.16
			c-2.42-12.59,0.31-25.35,7.57-35.86c7.26-10.51,18.24-17.53,30.87-19.73c1.08-0.19,2.16-0.3,3.33-0.43
			c0.95-0.09,1.85,0.42,2.23,1.31c0.38,0.89,0.18,1.89-0.52,2.53c-8.63,7.79-12.6,20.17-10.47,32.37
			c3.28,18.8,19.88,31.73,36.96,28.75c8.18-1.43,15.32-6.3,20.03-13.63c0.28-0.49,0.82-0.81,1.32-0.9c0.65-0.11,1.27,0.07,1.72,0.51
			c0.45,0.44,0.7,1.06,0.59,1.67C495.89,169.53,479.9,186.44,459.38,190.02z"/>
		<path class="st14" d="M443.37,98.23c1.08-0.19,2.17-0.3,3.18-0.41c0.59-0.03,0.84,0.59,0.46,0.95
			c-8.68,7.87-13.27,20.58-10.95,33.86c3.44,19.74,20.8,33.2,38.82,30.06c8.97-1.57,16.39-6.93,21.16-14.34
			c0.06-0.08,0.12-0.17,0.26-0.19c0.22-0.04,0.47,0.14,0.45,0.44c-2.27,19.62-17.2,36.21-37.58,39.76
			c-0.72,0.13-1.36,0.24-2.09,0.29c-23.87,3.05-46.24-13.23-50.73-36.85C401.45,126.7,418.18,102.63,443.37,98.23 M442.8,95
			c-13.06,2.28-24.37,9.5-31.93,20.44c-7.57,10.86-10.3,24.06-7.88,37.09c2.36,12.24,9.2,23.1,19.37,30.49
			c10.17,7.4,22.63,10.62,34.99,8.98c0.72-0.13,1.52-0.19,2.24-0.32c10.62-1.85,20.15-6.99,27.43-14.84
			c7.1-7.6,11.66-17.49,12.83-27.75c0.17-1.14-0.26-2.32-1.13-3.06c-0.81-0.82-2.04-1.12-3.12-0.93c-1,0.18-1.86,0.77-2.46,1.61
			c-4.47,6.99-11.22,11.57-18.97,12.92c-16.22,2.83-31.89-9.45-35.02-27.39c-2.04-11.7,1.74-23.52,9.92-30.87
			c1.21-1.1,1.64-2.88,0.92-4.45c-0.71-1.5-2.27-2.41-3.87-2.28C445.04,94.69,443.88,94.81,442.8,95"/>
		<path class="st23" d="M443.37,98.23c1.08-0.19,2.17-0.3,3.18-0.41c0.59-0.03,0.84,0.59,0.46,0.95
			c-8.68,7.87-13.27,20.58-10.95,33.86c3.44,19.74,20.8,33.2,38.82,30.06c8.97-1.57,16.39-6.93,21.16-14.34
			c0.06-0.08,0.12-0.17,0.26-0.19c0.22-0.04,0.47,0.14,0.45,0.44c-2.27,19.62-17.2,36.21-37.58,39.76
			c-0.72,0.13-1.36,0.24-2.09,0.29c-23.87,3.05-46.24-13.23-50.73-36.85C401.45,126.7,418.18,102.63,443.37,98.23 M442.8,95
			c-13.06,2.28-24.37,9.5-31.93,20.44c-7.57,10.86-10.3,24.06-7.88,37.09c2.36,12.24,9.2,23.1,19.37,30.49
			c10.17,7.4,22.63,10.62,34.99,8.98c0.72-0.13,1.52-0.19,2.24-0.32c10.62-1.85,20.15-6.99,27.43-14.84
			c7.1-7.6,11.66-17.49,12.83-27.75c0.17-1.14-0.26-2.32-1.13-3.06c-0.81-0.82-2.04-1.12-3.12-0.93c-1,0.18-1.86,0.77-2.46,1.61
			c-4.47,6.99-11.22,11.57-18.97,12.92c-16.22,2.83-31.89-9.45-35.02-27.39c-2.04-11.7,1.74-23.52,9.92-30.87
			c1.21-1.1,1.64-2.88,0.92-4.45c-0.71-1.5-2.27-2.41-3.87-2.28C445.04,94.69,443.88,94.81,442.8,95z"/>
		<path class="st22" d="M413.39,150.64c-4.53-23.84,10.33-46.76,33.32-52.77c-0.07,0.01-6.73-0.04-0.23-0.04
			c-1.09,0.12-2.11,0.22-3.18,0.41c-25.12,4.38-41.85,28.45-37.08,53.65c4.49,23.62,26.86,39.91,50.73,36.85
			c1.95-0.27,3.89-0.61,5.73-1.07C439.39,189.89,417.79,173.76,413.39,150.64"/>
		<path class="st23" d="M413.39,150.64c-4.53-23.84,10.33-46.76,33.32-52.77c-0.07,0.01-6.73-0.04-0.23-0.04
			c-1.09,0.12-2.11,0.22-3.18,0.41c-25.12,4.38-41.85,28.45-37.08,53.65c4.49,23.62,26.86,39.91,50.73,36.85
			c1.95-0.27,3.89-0.61,5.73-1.07C439.39,189.89,417.79,173.76,413.39,150.64z"/>
		<path class="st24" d="M459.48,189.92c-0.72,0.13-1.44,0.25-2.17,0.3c-24.8,3.22-47.93-13.6-52.58-38.16
			c-2.42-12.59,0.31-25.35,7.57-35.86c7.26-10.51,18.24-17.53,30.87-19.73c1.08-0.19,2.16-0.3,3.33-0.43
			c0.95-0.09,1.85,0.42,2.23,1.31c0.38,0.89,0.18,1.89-0.52,2.53c-8.63,7.79-12.6,20.17-10.47,32.37
			c3.28,18.8,19.88,31.73,36.96,28.75c8.18-1.43,15.32-6.3,20.03-13.63c0.28-0.49,0.82-0.81,1.32-0.9c0.65-0.11,1.27,0.07,1.72,0.51
			c0.45,0.44,0.7,1.06,0.59,1.67C495.99,169.43,480.01,186.34,459.48,189.92"/>
		<path class="st25" d="M443.47,98.13c1.08-0.19,2.17-0.3,3.18-0.41c0.59-0.03,0.84,0.59,0.46,0.95
			c-8.68,7.87-13.27,20.58-10.95,33.86c3.44,19.74,20.8,33.2,38.82,30.06c8.97-1.57,16.39-6.93,21.16-14.34
			c0.06-0.08,0.12-0.17,0.26-0.19c0.22-0.04,0.47,0.14,0.45,0.44c-2.27,19.62-17.2,36.21-37.58,39.76
			c-0.72,0.13-1.36,0.24-2.09,0.29c-23.87,3.05-46.24-13.23-50.73-36.85C401.55,126.59,418.28,102.52,443.47,98.13 M442.9,94.9
			c-13.06,2.28-24.37,9.5-31.93,20.44c-7.57,10.86-10.3,24.06-7.88,37.09c2.36,12.24,9.21,23.09,19.37,30.49s22.63,10.62,34.99,8.98
			c0.72-0.13,1.52-0.19,2.24-0.32c10.62-1.85,20.15-6.99,27.43-14.84c7.1-7.6,11.66-17.49,12.83-27.75
			c0.17-1.14-0.26-2.32-1.13-3.06c-0.81-0.82-2.04-1.12-3.12-0.93c-1,0.18-1.86,0.77-2.46,1.61c-4.47,6.99-11.22,11.57-18.97,12.92
			c-16.22,2.83-31.89-9.45-35.02-27.39c-2.04-11.7,1.74-23.52,9.92-30.87c1.21-1.1,1.64-2.88,0.92-4.45
			c-0.71-1.5-2.27-2.41-3.87-2.28C445.14,94.58,443.98,94.71,442.9,94.9"/>
		<path class="st26" d="M413.49,150.54c-4.53-23.84,10.33-46.76,33.32-52.77c-0.07,0.01-0.16-0.05-0.23-0.04
			c-1.09,0.12-2.11,0.22-3.18,0.41c-25.12,4.38-41.85,28.45-37.08,53.65c4.49,23.62,26.86,39.91,50.73,36.85
			c1.95-0.27,3.89-0.6,5.73-1.07C439.49,189.78,417.89,173.66,413.49,150.54"/>
		<path class="st14" d="M135.5,334.95h-13V321.3c0-2.76,2.24-5,5-5h3c2.76,0,5,2.24,5,5V334.95z"/>
		<path class="st27" d="M135.5,334.95h-13V321.3c0-2.76,2.24-5,5-5h3c2.76,0,5,2.24,5,5V334.95z"/>
		<path class="st14" d="M165.19,334.95h-13V321.3c0-2.76,2.24-5,5-5h3c2.76,0,5,2.24,5,5V334.95z"/>
		<path class="st27" d="M165.19,334.95h-13V321.3c0-2.76,2.24-5,5-5h3c2.76,0,5,2.24,5,5V334.95z"/>
		<path class="st14" d="M194.88,334.95h-13V321.3c0-2.76,2.24-5,5-5h3c2.76,0,5,2.24,5,5V334.95z"/>
		<path class="st27" d="M194.88,334.95h-13V321.3c0-2.76,2.24-5,5-5h3c2.76,0,5,2.24,5,5V334.95z"/>
		<path class="st14" d="M224.57,334.95h-13V321.3c0-2.76,2.24-5,5-5h3c2.76,0,5,2.24,5,5V334.95z"/>
		<path class="st27" d="M224.57,334.95h-13V321.3c0-2.76,2.24-5,5-5h3c2.76,0,5,2.24,5,5V334.95z"/>
		<path class="st14" d="M278,334.95h-13V321.3c0-2.76,2.24-5,5-5h3c2.76,0,5,2.24,5,5V334.95z"/>
		<path class="st27" d="M278,334.95h-13V321.3c0-2.76,2.24-5,5-5h3c2.76,0,5,2.24,5,5V334.95z"/>
		<path class="st14" d="M307.7,334.95h-13V321.3c0-2.76,2.24-5,5-5h3c2.76,0,5,2.24,5,5V334.95z"/>
		<path class="st27" d="M307.7,334.95h-13V321.3c0-2.76,2.24-5,5-5h3c2.76,0,5,2.24,5,5V334.95z"/>
		<path class="st14" d="M337.39,334.95h-13V321.3c0-2.76,2.24-5,5-5h3c2.76,0,5,2.24,5,5V334.95z"/>
		<path class="st27" d="M337.39,334.95h-13V321.3c0-2.76,2.24-5,5-5h3c2.76,0,5,2.24,5,5V334.95z"/>
		<path class="st14" d="M367.08,334.95h-13V321.3c0-2.76,2.24-5,5-5h3c2.76,0,5,2.24,5,5V334.95z"/>
		<path class="st27" d="M367.08,334.95h-13V321.3c0-2.76,2.24-5,5-5h3c2.76,0,5,2.24,5,5V334.95z"/>
		<g class="st28">
			<g>
				<defs>
					<rect id="SVGID_20_" x="122.61" y="369.29" width="88.96" height="25.24"/>
				</defs>
				<clipPath id="SVGID_21_">
					<use xlink:href="#SVGID_20_"  style="overflow:visible;"/>
				</clipPath>
				<g class="st29">
					<g>
						<defs>
							<rect id="SVGID_22_" x="122.61" y="369.29" width="12.77" height="25.24"/>
						</defs>
						<clipPath id="SVGID_23_">
							<use xlink:href="#SVGID_22_"  style="overflow:visible;"/>
						</clipPath>
						<path class="st30" d="M133.88,376.23c0.82,1.43,1.5,3.95,1.5,5.6v9.71c0,1.65-1.35,3-3,3h-6.77c-1.65,0-3-1.35-3-3v-9.71
							c0-1.65,0.68-4.17,1.5-5.6l0.19-0.33c0.82-1.43,2.17-3.77,3-5.19l0.19-0.33c0.82-1.43,2.18-1.43,3,0l0.19,0.33
							c0.82,1.43,2.18,3.77,3,5.2L133.88,376.23z"/>
					</g>
				</g>
				<g class="st29">
					<g>
						<defs>
							<rect id="SVGID_24_" x="148.01" y="369.29" width="12.77" height="25.24"/>
						</defs>
						<clipPath id="SVGID_25_">
							<use xlink:href="#SVGID_24_"  style="overflow:visible;"/>
						</clipPath>
						<path class="st31" d="M159.28,376.23c0.82,1.43,1.5,3.95,1.5,5.6v9.71c0,1.65-1.35,3-3,3h-6.77c-1.65,0-3-1.35-3-3v-9.71
							c0-1.65,0.68-4.17,1.5-5.6l0.19-0.33c0.82-1.43,2.18-3.77,3-5.19l0.19-0.33c0.82-1.43,2.17-1.43,3,0l0.19,0.33
							c0.82,1.43,2.17,3.77,3,5.2L159.28,376.23z"/>
					</g>
				</g>
				<g class="st29">
					<g>
						<defs>
							<rect id="SVGID_26_" x="173.41" y="369.29" width="12.77" height="25.24"/>
						</defs>
						<clipPath id="SVGID_27_">
							<use xlink:href="#SVGID_26_"  style="overflow:visible;"/>
						</clipPath>
						<path class="st32" d="M184.68,376.23c0.82,1.43,1.5,3.95,1.5,5.6v9.71c0,1.65-1.35,3-3,3h-6.77c-1.65,0-3-1.35-3-3v-9.71
							c0-1.65,0.68-4.17,1.5-5.6l0.19-0.33c0.82-1.43,2.17-3.77,3-5.19l0.19-0.33c0.83-1.43,2.18-1.43,3,0l0.19,0.33
							c0.82,1.43,2.18,3.77,3,5.2L184.68,376.23z"/>
					</g>
				</g>
				<g class="st29">
					<g>
						<defs>
							<rect id="SVGID_28_" x="198.8" y="369.29" width="12.77" height="25.24"/>
						</defs>
						<clipPath id="SVGID_29_">
							<use xlink:href="#SVGID_28_"  style="overflow:visible;"/>
						</clipPath>
						<path class="st33" d="M210.07,376.23c0.83,1.43,1.5,3.95,1.5,5.6v9.71c0,1.65-1.35,3-3,3h-6.77c-1.65,0-3-1.35-3-3v-9.71
							c0-1.65,0.68-4.17,1.5-5.6l0.19-0.33c0.82-1.43,2.18-3.77,3-5.19l0.19-0.33c0.82-1.43,2.17-1.43,3,0l0.19,0.33
							c0.82,1.43,2.17,3.77,3,5.2L210.07,376.23z"/>
					</g>
				</g>
			</g>
		</g>
		<g class="st28">
			<g>
				<defs>
					<rect id="SVGID_30_" x="278" y="369.29" width="88.96" height="25.24"/>
				</defs>
				<clipPath id="SVGID_31_">
					<use xlink:href="#SVGID_30_"  style="overflow:visible;"/>
				</clipPath>
				<g class="st34">
					<g>
						<defs>
							<rect id="SVGID_32_" x="278" y="369.29" width="12.77" height="25.24"/>
						</defs>
						<clipPath id="SVGID_33_">
							<use xlink:href="#SVGID_32_"  style="overflow:visible;"/>
						</clipPath>
						<path class="st35" d="M289.27,376.23c0.82,1.43,1.5,3.95,1.5,5.6v9.71c0,1.65-1.35,3-3,3H281c-1.65,0-3-1.35-3-3v-9.71
							c0-1.65,0.67-4.17,1.5-5.6l0.19-0.33c0.82-1.43,2.18-3.77,3-5.19l0.19-0.33c0.82-1.43,2.17-1.43,3,0l0.19,0.33
							c0.83,1.43,2.17,3.77,3,5.2L289.27,376.23z"/>
					</g>
				</g>
				<g class="st34">
					<g>
						<defs>
							<rect id="SVGID_34_" x="303.4" y="369.29" width="12.77" height="25.24"/>
						</defs>
						<clipPath id="SVGID_35_">
							<use xlink:href="#SVGID_34_"  style="overflow:visible;"/>
						</clipPath>
						<path class="st36" d="M314.67,376.23c0.82,1.43,1.5,3.95,1.5,5.6v9.71c0,1.65-1.35,3-3,3h-6.77c-1.65,0-3-1.35-3-3v-9.71
							c0-1.65,0.67-4.17,1.5-5.6l0.19-0.33c0.82-1.43,2.17-3.77,3-5.19l0.19-0.33c0.82-1.43,2.17-1.43,3,0l0.19,0.33
							c0.83,1.43,2.17,3.77,3,5.2L314.67,376.23z"/>
					</g>
				</g>
				<g class="st34">
					<g>
						<defs>
							<rect id="SVGID_36_" x="328.8" y="369.29" width="12.77" height="25.24"/>
						</defs>
						<clipPath id="SVGID_37_">
							<use xlink:href="#SVGID_36_"  style="overflow:visible;"/>
						</clipPath>
						<path class="st37" d="M340.06,376.23c0.82,1.43,1.5,3.95,1.5,5.6v9.71c0,1.65-1.35,3-3,3h-6.77c-1.65,0-3-1.35-3-3v-9.71
							c0-1.65,0.67-4.17,1.5-5.6l0.19-0.33c0.83-1.43,2.18-3.77,3-5.19l0.19-0.33c0.82-1.43,2.17-1.43,3,0l0.19,0.33
							c0.82,1.43,2.17,3.77,3,5.2L340.06,376.23z"/>
					</g>
				</g>
				<g class="st34">
					<g>
						<defs>
							<rect id="SVGID_38_" x="354.19" y="369.29" width="12.77" height="25.24"/>
						</defs>
						<clipPath id="SVGID_39_">
							<use xlink:href="#SVGID_38_"  style="overflow:visible;"/>
						</clipPath>
						<path class="st38" d="M365.46,376.23c0.82,1.43,1.5,3.95,1.5,5.6v9.71c0,1.65-1.35,3-3,3h-6.77c-1.65,0-3-1.35-3-3v-9.71
							c0-1.65,0.67-4.17,1.5-5.6l0.19-0.33c0.82-1.43,2.18-3.77,3-5.19l0.19-0.33c0.82-1.43,2.18-1.43,3,0l0.19,0.33
							c0.82,1.43,2.17,3.77,3,5.2L365.46,376.23z"/>
					</g>
				</g>
			</g>
		</g>
		<polygon class="st39" points="361.41,160.22 364.64,161.09 367.19,158.93 367.36,162.27 370.21,164.02 367.08,165.22 
			366.29,168.47 364.19,165.86 360.86,166.12 362.68,163.32 		"/>
		<polygon class="st40" points="361.41,160.22 364.64,161.09 367.19,158.93 367.36,162.27 370.21,164.02 367.08,165.22 
			366.29,168.47 364.19,165.86 360.86,166.12 362.68,163.32 		"/>
		<polygon class="st41" points="361.41,160.22 364.64,161.09 367.19,158.93 367.36,162.27 370.21,164.02 367.08,165.22 
			366.29,168.47 364.19,165.86 360.86,166.12 362.68,163.32 		"/>
		<polygon class="st42" points="361.41,160.22 364.64,161.09 367.19,158.93 367.36,162.27 370.21,164.02 367.08,165.22 
			366.29,168.47 364.19,165.86 360.86,166.12 362.68,163.32 		"/>
		<polygon class="st39" points="373.35,195.09 376.58,195.96 379.13,193.8 379.3,197.14 382.15,198.89 379.02,200.09 378.23,203.34 
			376.13,200.73 372.8,200.99 374.62,198.19 		"/>
		<polygon class="st40" points="373.35,195.09 376.58,195.96 379.13,193.8 379.3,197.14 382.15,198.89 379.02,200.09 378.23,203.34 
			376.13,200.73 372.8,200.99 374.62,198.19 		"/>
		<polygon class="st41" points="373.35,195.09 376.58,195.96 379.13,193.8 379.3,197.14 382.15,198.89 379.02,200.09 378.23,203.34 
			376.13,200.73 372.8,200.99 374.62,198.19 		"/>
		<polygon class="st42" points="373.35,195.09 376.58,195.96 379.13,193.8 379.3,197.14 382.15,198.89 379.02,200.09 378.23,203.34 
			376.13,200.73 372.8,200.99 374.62,198.19 		"/>
		<polygon class="st39" points="447,211.82 450.23,212.69 452.78,210.52 452.95,213.87 455.79,215.62 452.67,216.81 451.88,220.06 
			449.78,217.46 446.44,217.71 448.27,214.91 		"/>
		<polygon class="st40" points="447,211.82 450.23,212.69 452.78,210.52 452.95,213.87 455.79,215.62 452.67,216.81 451.88,220.06 
			449.78,217.46 446.44,217.71 448.27,214.91 		"/>
		<polygon class="st41" points="447,211.82 450.23,212.69 452.78,210.52 452.95,213.87 455.79,215.62 452.67,216.81 451.88,220.06 
			449.78,217.46 446.44,217.71 448.27,214.91 		"/>
		<polygon class="st42" points="447,211.82 450.23,212.69 452.78,210.52 452.95,213.87 455.79,215.62 452.67,216.81 451.88,220.06 
			449.78,217.46 446.44,217.71 448.27,214.91 		"/>
		<polygon class="st39" points="419.86,199.86 423.09,200.73 425.63,198.57 425.8,201.91 428.65,203.66 425.53,204.86 
			424.74,208.11 422.64,205.5 419.3,205.76 421.13,202.96 		"/>
		<polygon class="st40" points="419.86,199.86 423.09,200.73 425.63,198.57 425.8,201.91 428.65,203.66 425.53,204.86 
			424.74,208.11 422.64,205.5 419.3,205.76 421.13,202.96 		"/>
		<polygon class="st41" points="419.86,199.86 423.09,200.73 425.63,198.57 425.8,201.91 428.65,203.66 425.53,204.86 
			424.74,208.11 422.64,205.5 419.3,205.76 421.13,202.96 		"/>
		<polygon class="st42" points="419.86,199.86 423.09,200.73 425.63,198.57 425.8,201.91 428.65,203.66 425.53,204.86 
			424.74,208.11 422.64,205.5 419.3,205.76 421.13,202.96 		"/>
		<polygon class="st39" points="334.51,170.14 337.74,171.01 340.29,168.85 340.46,172.19 343.31,173.94 340.18,175.14 
			339.39,178.39 337.29,175.78 333.96,176.04 335.78,173.24 		"/>
		<polygon class="st40" points="334.51,170.14 337.74,171.01 340.29,168.85 340.46,172.19 343.31,173.94 340.18,175.14 
			339.39,178.39 337.29,175.78 333.96,176.04 335.78,173.24 		"/>
		<polygon class="st41" points="334.51,170.14 337.74,171.01 340.29,168.85 340.46,172.19 343.31,173.94 340.18,175.14 
			339.39,178.39 337.29,175.78 333.96,176.04 335.78,173.24 		"/>
		<polygon class="st42" points="334.51,170.14 337.74,171.01 340.29,168.85 340.46,172.19 343.31,173.94 340.18,175.14 
			339.39,178.39 337.29,175.78 333.96,176.04 335.78,173.24 		"/>
		<path class="st14" d="M82.8,325.62h-10v-22.24c0-2.76,2.24-5,5-5c2.76,0,5,2.24,5,5V325.62z"/>
		<path class="st27" d="M82.8,325.62h-10v-22.24c0-2.76,2.24-5,5-5c2.76,0,5,2.24,5,5V325.62z"/>
		<path class="st14" d="M104.49,325.62h-10v-22.24c0-2.76,2.24-5,5-5c2.76,0,5,2.24,5,5V325.62z"/>
		<path class="st27" d="M104.49,325.62h-10v-22.24c0-2.76,2.24-5,5-5c2.76,0,5,2.24,5,5V325.62z"/>
		<path class="st14" d="M392.87,329.92h-10v-22.24c0-2.76,2.24-5,5-5c2.76,0,5,2.24,5,5V329.92z"/>
		<path class="st27" d="M392.87,329.92h-10v-22.24c0-2.76,2.24-5,5-5c2.76,0,5,2.24,5,5V329.92z"/>
		<path class="st14" d="M414.56,329.92h-10v-22.24c0-2.76,2.24-5,5-5c2.76,0,5,2.24,5,5V329.92z"/>
		<path class="st27" d="M414.56,329.92h-10v-22.24c0-2.76,2.24-5,5-5c2.76,0,5,2.24,5,5V329.92z"/>
		<rect x="377.47" y="350.58" class="st8" width="42.49" height="46.78"/>
		<rect x="377.47" y="350.58" class="st43" width="42.49" height="46.78"/>
		<path class="st44" d="M404.6,376.23c0.83,1.43,1.5,3.95,1.5,5.6v9.71c0,1.65-1.35,3-3,3h-6.77c-1.65,0-3-1.35-3-3v-9.71
			c0-1.65,0.67-4.17,1.5-5.6l0.19-0.33c0.83-1.43,2.18-3.77,3-5.19l0.19-0.33c0.82-1.43,2.17-1.43,3,0l0.19,0.33
			c0.83,1.43,2.17,3.77,3,5.2L404.6,376.23z"/>
		<rect x="111.96" y="343.57" class="st20" width="263.79" height="7.71"/>
		<rect x="111.96" y="343.57" class="st45" width="263.79" height="7.71"/>
		<rect x="66.6" y="349.12" class="st8" width="42.49" height="46.78"/>
		<rect x="66.6" y="349.12" class="st43" width="42.49" height="46.78"/>
		<path class="st44" d="M92.99,376.23c0.82,1.43,1.5,3.95,1.5,5.6v9.71c0,1.65-1.35,3-3,3h-6.77c-1.65,0-3-1.35-3-3v-9.71
			c0-1.65,0.68-4.17,1.5-5.6l0.19-0.33c0.82-1.43,2.18-3.77,3-5.19l0.19-0.33c0.83-1.43,2.18-1.43,3,0l0.19,0.33
			c0.82,1.43,2.17,3.77,3,5.2L92.99,376.23z"/>
		<rect x="60.11" y="342" class="st28" width="54.54" height="9.86"/>
		<rect x="60.11" y="342" class="st46" width="54.54" height="9.86"/>
		<rect x="51.5" y="394.23" class="st19" width="382.2" height="12.56"/>
		<rect x="51.5" y="394.23" class="st21" width="382.2" height="12.56"/>
		<rect x="52.87" y="395.69" class="st20" width="379.7" height="3.34"/>
		<rect x="52.87" y="395.69" class="st47" width="379.7" height="3.34"/>
		<polygon class="st48" points="231.49,393.53 190.5,442.07 304.82,442.07 257.03,393.53 		"/>
		<polygon class="st49" points="231.49,393.53 190.5,442.07 304.82,442.07 257.03,393.53 		"/>
		<path class="st44" d="M256.7,358.31c0.87,1.4,1.59,3.89,1.59,5.55v26.86c0,1.65-1.35,3-3,3h-22.86c-1.65,0-3-1.35-3-3v-26.86
			c0-1.65,0.71-4.15,1.59-5.55l4.04-6.48c0.87-1.4,2.3-3.69,3.18-5.09l4.04-6.48c0.87-1.4,2.3-1.4,3.17,0l4.04,6.48
			c0.87,1.4,2.3,3.69,3.17,5.09L256.7,358.31z"/>
		<path class="st50" d="M256.7,358.31c0.87,1.4,1.59,3.89,1.59,5.55v26.86c0,1.65-1.35,3-3,3h-22.86c-1.65,0-3-1.35-3-3v-26.86
			c0-1.65,0.71-4.15,1.59-5.55l4.04-6.48c0.87-1.4,2.3-3.69,3.18-5.09l4.04-6.48c0.87-1.4,2.3-1.4,3.17,0l4.04,6.48
			c0.87,1.4,2.3,3.69,3.17,5.09L256.7,358.31z"/>
		<rect x="61.33" y="342.73" class="st20" width="51.81" height="7.93"/>
		<rect x="61.33" y="342.73" class="st19" width="26.94" height="7.93"/>
		<rect x="370.68" y="342.5" class="st28" width="54.54" height="9.86"/>
		<rect x="370.68" y="342.5" class="st46" width="54.54" height="9.86"/>
		<rect x="371.9" y="343.23" class="st20" width="51.81" height="7.93"/>
		<rect x="371.9" y="343.23" class="st19" width="26.94" height="7.93"/>
	</g>
</g>
</svg>
